<mxfile host="app.diagrams.net" modified="2024-05-22T13:29:45.618Z" agent="Mozilla/5.0 (Windows NT 10.0; Win64; x64) AppleWebKit/537.36 (KHTML, like Gecko) Chrome/125.0.0.0 Safari/537.36" version="24.4.6" etag="6BaD371SNfOQfq85vY5w" type="github">
  <diagram name="Halaman-1" id="jYnVQCD0l5Hl1oVoPy9S">
    <mxGraphModel>
      <root>
        <mxCell id="0" />
        <mxCell id="1" parent="0" />
      </root>
    </mxGraphModel>
  </diagram>
</mxfile>
